<?xml version="1.0" encoding="UTF-8" standalone="no"?>
<svg
   xmlns:dc="http://purl.org/dc/elements/1.1/"
   xmlns:cc="http://creativecommons.org/ns#"
   xmlns:rdf="http://www.w3.org/1999/02/22-rdf-syntax-ns#"
   xmlns:svg="http://www.w3.org/2000/svg"
   xmlns="http://www.w3.org/2000/svg"
   xmlns:sodipodi="http://sodipodi.sourceforge.net/DTD/sodipodi-0.dtd"
   xmlns:inkscape="http://www.inkscape.org/namespaces/inkscape"
   version="1.1"
   id="svg68"
   width="269.44"
   height="101.76"
   viewBox="0 0 269.44 101.76"
   sodipodi:docname="listfy-logo-retraida.svg"
   inkscape:version="1.0.2 (e86c870879, 2021-01-15)">
  <metadata
     id="metadata74">
    <rdf:RDF>
      <cc:Work
         rdf:about="">
        <dc:format>image/svg+xml</dc:format>
        <dc:type
           rdf:resource="http://purl.org/dc/dcmitype/StillImage" />
        <dc:title></dc:title>
      </cc:Work>
    </rdf:RDF>
  </metadata>
  <defs
     id="defs72" />
  <sodipodi:namedview
     pagecolor="#ffffff"
     bordercolor="#666666"
     borderopacity="1"
     objecttolerance="10"
     gridtolerance="10"
     guidetolerance="10"
     inkscape:pageopacity="0"
     inkscape:pageshadow="2"
     inkscape:window-width="1920"
     inkscape:window-height="1004"
     id="namedview70"
     showgrid="false"
     inkscape:zoom="4.5768788"
     inkscape:cx="133.05615"
     inkscape:cy="47.061484"
     inkscape:window-x="0"
     inkscape:window-y="0"
     inkscape:window-maximized="1"
     inkscape:current-layer="g76" />
  <g
     inkscape:groupmode="layer"
     inkscape:label="Image"
     id="g76">
    <path
       style="fill:#ffffff;stroke-width:0.32"
       d="M 76.600787,51.280572 V 1.0405741 h 10.4 10.4 V 51.280572 101.52057 h -10.4 -10.4 z m 37.759993,15.84 V 32.720574 h 10.4 10.4 v 34.399998 34.399998 h -10.4 -10.4 z m 34.02555,34.164398 c 0.1117,-0.18351 40.58081,-97.7736239 41.40393,-99.8443959 0.12262,-0.308496 2.53028,-0.4 10.52476,-0.4 5.70116,0 10.36576,0.0508 10.36576,0.112882 0,0.06209 -9.33114,22.6340849 -20.73587,50.1600059 l -20.73588,50.047108 -10.48573,0.0844 c -5.76715,0.0464 -10.41879,-0.0256 -10.33697,-0.16 z M 30.040787,85.534922 0.6007869,72.176292 v -8.57544 -8.57544 L 30.200787,41.633416 c 16.28,-7.3656 29.709968,-13.392187 29.844371,-13.39242 0.134407,-2.32e-4 0.206407,4.702826 0.16,10.451239 l -0.08437,10.451664 -16.64,6.787503 c -16.304617,6.65071 -16.64,6.80528 -16.64,7.66917 0,0.86389 0.335383,1.01846 16.64,7.66917 l 16.64,6.78751 0.08437,10.45166 c 0.06674,8.26667 -1.63e-4,10.44465 -0.32,10.41815 -0.222402,-0.0184 -13.65237,-6.04489 -29.844371,-13.39214 z m 179.683723,1.66565 0.004,-10.48 2.47626,-0.99975 c 26.33047,-10.63059 31.11601,-12.69149 31.11601,-13.40025 0,-0.70876 -4.78554,-2.76966 -31.11627,-13.400248 l -2.47626,-0.99975 -0.004,-10.48 c -0.002,-5.764 0.0532,-10.48 0.12289,-10.48 0.0696,0 13.42565,6.019392 29.68,13.376429 l 29.55338,13.376429 v 8.60714 8.60714 l -29.55313,13.37643 c -16.25434,7.35704 -29.61034,13.37643 -29.67999,13.37643 -0.0696,0 -0.12494,-4.716 -0.12289,-10.48 z M 122.8493,25.929749 C 117.19076,25.207387 112.39438,20.114815 111.90894,14.313787 111.1277,4.9780351 119.7703,-2.0321579 128.7126,0.68398306 c 3.54066,1.07544204 6.13925,3.29607804 7.7561,6.62802604 4.68716,9.6590989 -2.87017,19.9899759 -13.6194,18.6177399 z"
       id="path94" />
  </g>
</svg>
