<?xml version="1.0" encoding="UTF-8" standalone="no"?>
<!-- Created with Inkscape (http://www.inkscape.org/) -->

<svg
   xmlns:dc="http://purl.org/dc/elements/1.1/"
   xmlns:cc="http://creativecommons.org/ns#"
   xmlns:rdf="http://www.w3.org/1999/02/22-rdf-syntax-ns#"
   xmlns:svg="http://www.w3.org/2000/svg"
   xmlns="http://www.w3.org/2000/svg"
   xmlns:sodipodi="http://sodipodi.sourceforge.net/DTD/sodipodi-0.dtd"
   xmlns:inkscape="http://www.inkscape.org/namespaces/inkscape"
   version="1.1"
   id="svg69"
   width="532.15997"
   height="144.64"
   viewBox="0 0 532.15997 144.64"
   sodipodi:docname="listify-logo.svg"
   inkscape:version="0.92.5 (2060ec1f9f, 2020-04-08)">
  <metadata
     id="metadata75">
    <rdf:RDF>
      <cc:Work
         rdf:about="">
        <dc:format>image/svg+xml</dc:format>
        <dc:type
           rdf:resource="http://purl.org/dc/dcmitype/StillImage" />
        <dc:title></dc:title>
      </cc:Work>
    </rdf:RDF>
  </metadata>
  <defs
     id="defs73" />
  <sodipodi:namedview
     pagecolor="#ffffff"
     bordercolor="#666666"
     borderopacity="1"
     objecttolerance="10"
     gridtolerance="10"
     guidetolerance="10"
     inkscape:pageopacity="0"
     inkscape:pageshadow="2"
     inkscape:window-width="1920"
     inkscape:window-height="1010"
     id="namedview71"
     showgrid="false"
     inkscape:zoom="3.2321108"
     inkscape:cx="266.07999"
     inkscape:cy="72.32"
     inkscape:window-x="0"
     inkscape:window-y="0"
     inkscape:window-maximized="1"
     inkscape:current-layer="svg69" />
  <path
     style="fill:#fff;stroke-width:0.31999999"
     d="m 400.45877,145.993 c -0.528,-0.0778 -2.004,-0.36386 -3.28,-0.6356 l -2.32,-0.49408 v -7.94111 -7.94111 l 4.24,-0.14446 c 5.94953,-0.20271 8.59433,-1.34014 10.77641,-4.63447 1.00167,-1.5122 3.86359,-8.52106 3.86359,-9.46187 0,-0.29973 -6.12,-18.059095 -13.6,-39.465245 -7.48,-21.40616 -13.6,-38.977883 -13.6,-39.048276 0,-0.07039 5.05907,-0.09015 11.24237,-0.04389 l 11.24233,0.08409 7.23766,24.246826 c 4.74829,15.90726 7.31863,24.05187 7.47316,23.68 0.1295,-0.31175 3.26652,-10.79083 6.97113,-23.28683 3.70461,-12.496 6.88583,-23.187996 7.06931,-23.759996 l 0.33367,-1.04 h 11.2094 c 8.83335,0 11.17799,0.08479 11.06109,0.4 -0.0816,0.22 -7.23981,20.775996 -15.90717,45.679996 -8.71123,25.030145 -16.43913,46.724555 -17.28009,48.510135 -2.02045,4.28998 -3.5943,6.54018 -6.51322,9.31216 -2.70688,2.57065 -6.24361,4.50729 -9.81964,5.37705 -2.05978,0.50097 -8.54922,0.87953 -10.4,0.60668 z M 76.556432,108.17501 C 79.406726,99.764435 88.146786,73.989275 95.978786,50.896875 l 14.239994,-41.9861663 7.76,-0.0019 c 4.268,-10e-4 7.75995,0.03413 7.75988,0.07813 -7e-5,0.044 -8.47471,25.0640003 -18.83255,55.6000023 -10.357833,30.536 -19.081353,56.275999 -19.385593,57.199999 l -0.553164,1.68 h -7.79664 -7.79664 l 5.182359,-15.29196 z m 162.942348,7.70809 c -8.50486,-0.77264 -16.83408,-4.47461 -21.99961,-9.77785 -4.05314,-4.16122 -6.94125,-10.405335 -6.95566,-15.038275 l -0.005,-1.52 h 9.87542 9.87543 l 0.18946,1.59968 c 0.80898,6.83056 8.02201,11.061105 16.93279,9.931335 5.79172,-0.73432 8.92825,-3.163675 9.41745,-7.294175 0.48061,-4.05804 -2.25627,-6.94072 -8.53055,-8.98503 -1.144,-0.37274 -4.528,-1.26002 -7.52,-1.97173 -6.60957,-1.57222 -9.65551,-2.54902 -13.47316,-4.32069 -6.8515,-3.1796 -11.24434,-7.40864 -13.19347,-12.70149 -2.03987,-5.53927 -1.28248,-12.71796 1.90593,-18.06478 1.35562,-2.2733 4.64924,-5.660158 7.1607,-7.363406 5.45138,-3.697069 10.9132,-5.360278 18.88,-5.749254 9.46239,-0.462 17.97688,1.538182 24.16357,5.676384 6.40156,4.281936 9.93547,10.000456 10.72268,17.351266 l 0.2283,2.13189 h -10.55251 -10.55251 l -0.18091,-1.75286 c -0.10533,-1.02056 -0.55426,-2.43882 -1.07457,-3.39482 -2.05727,-3.77988 -5.43726,-5.26769 -11.42066,-5.02717 -3.05421,0.12277 -3.8395,0.27074 -5.40492,1.01847 -5.68202,2.71405 -6.62429,9.62736 -1.75753,12.89487 1.95211,1.31063 4.36319,2.21615 8.54906,3.21073 10.78153,2.56173 12.95213,3.14313 15.98842,4.28257 8.85486,3.32299 13.94898,8.30725 15.85006,15.50824 0.66207,2.50781 0.66794,8.31176 0.011,10.85997 -2.52878,9.808605 -12.69419,16.895855 -26.34201,18.365455 -3.09857,0.33365 -7.91139,0.39195 -10.78745,0.13067 z m 72.81258,-0.12739 c -3.17557,-0.48871 -6.64601,-1.78204 -9.02412,-3.363 -3.6292,-2.41269 -5.87426,-5.81456 -7.36881,-11.16574 -0.70528,-2.525215 -0.71647,-2.880555 -0.82435,-26.159995 l -0.10937,-23.6 h -5.74297 -5.74297 v -7.679998 -7.68 h 5.76 5.76 v -9.6 -9.6 h 10.56 10.56 v 9.6 9.6 h 6.56 6.56 v 7.68 7.679998 h -6.56 -6.56 l 0.002,21.04 c 0.001,14.39804 0.11364,21.44289 0.3561,22.31626 0.19487,0.70194 0.83539,1.72998 1.42338,2.28453 1.5449,1.45702 3.57074,1.85088 8.35694,1.62473 l 3.9418,-0.18625 v 7.795545 7.79555 l -1.05687,0.34879 c -3.74173,1.23489 -12.69351,1.90935 -16.85055,1.26958 z M 136.93878,58.826975 V 3.1469767 h 10.4 10.4 V 58.826975 114.50697 h -10.4 -10.4 z m 39.36,16.48 V 36.106977 h 10.4 10.4 v 39.199998 39.199995 h -10.4 -10.4 z m 170.55999,7.68 v -31.52 h -5.76 -5.76 v -7.679998 -7.68 h 5.71565 5.71568 l 0.18989,-6.16 c 0.11136,-3.612596 0.38835,-7.034226 0.66976,-8.274009 2.38179,-10.492302 9.20998,-17.0929313 20.03404,-19.3663683 3.81703,-0.801707 10.9296,-0.797394 15.27498,0.0093 l 3.28,0.608885 v 8.1139103 8.11391 l -1.84,-0.242795 c -5.28803,-0.69778 -10.08272,-0.02492 -12.57178,1.764249 -2.91366,2.094377 -3.82822,4.724902 -3.82822,11.011035 v 4.42192 h 7.68 7.68 v 7.68 7.679998 h -7.68 -7.68 v 31.52 31.519998 h -10.56 -10.56 z M 31.818789,91.327165 0.7787907,78.125295 v -8.57834 -8.57835 L 27.818789,49.497815 c 14.872,-6.308944 28.875999,-12.25112 31.119999,-13.204841 l 4.079999,-1.734035 v 10.143626 10.14363 l -20.447768,7.35039 c -11.24627,4.04271 -20.398164,7.43187 -20.33754,7.53145 0.06062,0.0996 9.262118,3.40838 20.447767,7.35289 l 20.337541,7.17183 v 10.16711 c 0,5.591905 -0.036,10.154075 -0.08,10.138135 -0.044,-0.0159 -14.047999,-5.969795 -31.119998,-13.230835 z m 437.675491,3.11775 0.0845,-10.12541 20.85955,-7.38627 c 11.47274,-4.06244 20.76074,-7.48369 20.64,-7.60276 -0.12076,-0.11908 -9.47907,-3.45061 -20.79628,-7.40341 -11.31722,-3.95279 -20.6433,-7.25344 -20.72464,-7.33478 -0.0813,-0.0813 -0.10979,-4.62063 -0.0633,-10.08731 l 0.0846,-9.939406 31.44173,13.170706 31.44173,13.1707 -0.0817,8.62653 -0.0817,8.62652 -31.00208,13.03539 c -17.05117,7.16947 -31.20118,13.111785 -31.44451,13.205145 -0.37184,0.1427 -0.42889,-1.44459 -0.35789,-9.955645 z M 183.1415,26.395667 c -4.99228,-1.273935 -8.12272,-5.300793 -8.12272,-10.44869 0,-3.120471 0.93562,-5.457355 3.01913,-7.5408693 2.29868,-2.298678 4.49945,-3.105299 8.50087,-3.115711 4.77642,-0.01243 7.96009,1.466639 10.07521,4.680742 3.75977,5.7132693 1.34279,13.5522723 -4.90814,15.9185633 -2.23879,0.847496 -6.28842,1.08674 -8.56435,0.505965 z"
     id="path79"
     inkscape:connector-curvature="0" />
</svg>
